<?xml version="1.0" encoding="utf-8"?>
<!-- Generator: Adobe Illustrator 26.3.1, SVG Export Plug-In . SVG Version: 6.00 Build 0)  -->
<svg version="1.1" xmlns="http://www.w3.org/2000/svg" xmlns:xlink="http://www.w3.org/1999/xlink" x="0px" y="0px"
	 viewBox="0 0 809.3 771.5" style="enable-background:new 0 0 809.3 771.5;" xml:space="preserve">
<style type="text/css">
	.st0{fill:#FFFFFF;}
	.st1{fill:none;stroke:#FFFFFF;stroke-width:0;stroke-linecap:round;stroke-linejoin:round;}
</style>
<g id="Слой_1">
</g>
<g id="Слой_2">
	<g>
		<path d="M603.6,85.9c-0.4-3.1-0.8-6.2-1.3-9.2c-1.1-6.4-2.8-12.8-5.9-18.5c-2-3.9-4.8-7.4-8.2-10.2l-0.4-0.3l-0.5-0.3l-1.1-0.8
			c-5.4-3.7-12-5.8-18.6-4.7c-3.3,0.6-6.5,1.7-9.4,3.4c-2.3,1.3-4.4,2.8-6.5,4.5c-7.3,5.8-11.9,13.5-16.1,21.9
			c-2.3,4.6-4.2,9.4-6,14.2H603.6z"/>
		<path d="M220.4,155.4c11.7,9.7,26.7,15.3,41.9,15c14-0.5,27.5-5.9,37.8-15.4c2-1.8,3.9-3.7,5.7-5.7c0.8-0.9,1.6-1.8,2.3-2.8
			l0.6-0.8l0.2-0.2l0.9-1.2c1.9-2.5,3.5-5.2,5-8c6.6-12.7,9-27.2,6.8-41.4c-2.4-15.2-10.4-29-22.4-38.7
			c-12.1-9.7-27.2-14.8-42.6-14.4C242,42.3,228,48,217.3,58c-6.1,5.6-11.1,12.3-14.7,19.8c0,0,0,0,0,0c-0.1,0.2-0.2,0.5-0.3,0.7
			c-0.2,0.4-0.3,0.6-0.1,0.2c-0.1,0.3-0.2,0.6-0.4,0.9c-4.4,11-6,22.8-4.7,34.6C199.1,130.4,207.9,145,220.4,155.4z"/>
		<path d="M297,730.3V561.5c-0.3,0.1-0.7,0.2-1,0.4c-15.5,5.6-30,13.7-43,23.8c-12.3,9.6-23.1,21-32.1,33.7
			c-6.6,9.5-12.4,19.5-17.1,30.1c-0.5,1-0.9,2-1.3,3l-0.6,1.4l-0.3,0.6c0,0,0,0,0,0c0,0-0.1,0.2,0,0c0,0,0,0.1-0.1,0.3
			c-1,2.3-1.9,4.6-2.8,6.9c-3.3,8.6-6,17.5-8.1,26.5c-3.1,13.9-4.7,28-4.7,42.2H297z"/>
		<path d="M352.3,730.2h92v-3.6c0.1-2.6,0.2-5.1,0.2-7.7v-11.6h0c0-0.4,0-0.9,0-1.3c0-14.7-1.1-29.4-3.3-43.9
			c-2.2-13.4-5.5-26.4-12.9-37.7c-8.5-13.1-23-22.1-38.8-22.4c-8.6-0.1-17,2.2-24.3,6.8c-4.1,2.4-7.8,5.5-10.9,9l0,0
			c-0.6,0.7-1.4,0.9-2.1,0.7v87.8V730.2z"/>
		<path d="M0,0v771.5h809.3V0H0z M396.4,597.5c7.3,1.2,14.3,3.9,20.5,8.1c7.1,4.8,13,11.1,17.4,18.6c7.3,12.3,10.5,26.6,12.5,40.6
			c1.9,14.1,2.9,28.3,2.9,42.5h0v28.1h-3.8h-1.3h-94.7h-2.5v-5.2v-24V525.9c0-3.2,5-3.2,5,0v86.7C363.9,601.1,380.2,595,396.4,597.5
			z M526.5,730.2V438.5c0-3.2,5-3.2,5,0v271.4v20.3v0.2h38.4V419.6c0-3.2,5-3.2,5,0v310.7h40.3V714V401.4v0v0c0-3.2,5-3.2,5,0V714
			v17.4v3.9h-2.5h-2.5h-83.6H529h-2.5v-5.1C526.5,730.2,526.5,730.2,526.5,730.2z M483.7,722.7v11.4v1.2h-5v-1.2v-11.4V461.1
			c0-3.2,5-3.2,5,0V722.7z M766.6,205.3c0-3.2,5-3.2,5,0l0,8c0,0,0,0,0,0c0.1,4.5,0.2,9,0.3,13.5c0.2,15,0.3,30,0.1,44.9
			c0,3.8-0.2,7.7-0.4,11.5c0,0.2,0,0.4,0,0.6l0,37.2l-0.2,205.2l-0.2,206.3c0,0.2,0,0.5-0.1,0.7v2.1h-2.6h-2.3h-83.5
			c-0.2,0-0.3,0-0.5,0h-1.1c-0.3-1.1-0.6-2.2-0.9-3.3c-1.8-7.2-3.4-14.2-4.8-20.9c-13.5-71.7-2.9-146,30.3-211.3
			c6.2-12.2,13.1-23.9,20.8-35.2l0,0c1.8-2.6,6.1-0.1,4.3,2.5c-0.8,1.1-1.5,2.2-2.2,3.3C686.3,534.6,668,611.9,677,688.4
			c1.7,14.1,4.3,28.1,7.8,41.9h81.4v-26.1h0c0-29.1,0.1-58.3,0.1-87.4c0.1-68.4,0.1-136.8,0.2-205.2l0.1-77.1
			c-0.4,2.4-0.8,4.8-1.3,7.2c-1.9,9.7-4.3,19.5-8.5,28.5c-4,8.7-10.8,16.9-19.2,21.4c-12,6.5-28.1,4.4-37.2-6
			c-4.9-5.6-7.9-12.6-10.2-19.6c-1.7-5.3-3.1-10.7-4-16.2c-2.2-13.5-2.3-27.3-2.2-40.9c0.1-15.8,0.5-31.6,1.2-47.4l0-0.1
			c0.1-3.2,5.1-3.2,5,0c-0.2,4.3-0.3,8.6-0.5,12.9c-0.5,15.1-0.8,30.2-0.7,45.3c0.1,12.1,0.7,24.1,3.4,35.9
			c1.3,5.9,3.2,11.7,5.7,17.2c3,6.3,7.1,12.2,13.6,15.3c3.2,1.5,6.8,2.3,10.3,2.4c1.2,0,2.5,0,3.7-0.1l0.8-0.1c0.4,0,0.1,0,0,0
			c0,0,0,0-0.1,0c0,0,0,0,0.1,0c0.4-0.1,0.9-0.1,1.4-0.2c6.1-1.2,11.4-4.7,15.7-9.1c1.5-1.6,3-3.3,4.4-5.1l0.2-0.2
			c0.1-0.2,0.1-0.2,0.4-0.5s0.5-0.6,0.7-1c0.5-0.8,1-1.6,1.5-2.4c1-1.7,1.8-3.5,2.6-5.4c0.3-0.7-0.1,0.2,0.1-0.2
			c0-0.1,0-0.1,0.1-0.3s0.2-0.5,0.3-0.8c0.2-0.4,0.4-1,0.5-1.4c0.4-1.1,0.8-2.2,1.2-3.2c3.1-9.7,5.4-19.6,6.8-29.7
			c0.8-5.3,1.4-10.1,2-15.5c0.5-4.9,1-9.8,1.4-14.8c0.4-5.4,0.8-10.9,1-16.3L766.6,205.3L766.6,205.3z M518.3,111.9
			c0.3-2.2,0.7-4.5,1.1-6.7c2.7-14.9,7.9-29.3,15.4-42.4c2.7-4.8,5.9-9.2,9.7-13.2c2.6-2.6,5.4-4.9,8.4-6.8
			c6.1-4.1,13.3-6.7,20.7-6.1c6.4,0.6,12.5,3.1,17.5,7.2c11,8.5,15,22.6,16.8,35.8c0.3,2.1,0.6,4.2,0.8,6.3h17.2c3.2,0,3.2,5,0,5
			h-16.7c0.4,4.3,0.6,8.5,0.8,12.8c0.4,7.8,0.7,15.5,0.5,23.3c-0.1,3.2-5.1,3.2-5,0c0.1-1.4,0.1-2.8,0.1-4.2
			c0-8.1-0.4-16.1-0.9-24.1c-0.1-2.6-0.3-5.2-0.5-7.8H529c-0.3,0-0.5-0.1-0.8-0.1c-2.3,7.4-4,14.9-5.1,22.6l-0.1,0
			c-0.4,1.3-1.7,2.1-3.1,1.8C518.7,114.6,517.9,113.2,518.3,111.9z M366.8,88V39.3c0-3.2,5-3.2,5,0v85.4c4.7-1.3,9.4-2.9,13.9-4.9
			c27.2-11.8,47.9-34.9,56.5-63.2c1.1-3.5,2-7.1,2.7-10.7c0.3-1.5,0.5-2.9,0.8-4.4c0.1-0.3,0.1-0.7,0.1-1l0.1-0.4
			c0.1-0.5,0.1-1.1,0.2-1.6c0-1.4,1.1-2.5,2.5-2.5c1.4,0,2.5,1.1,2.5,2.5c-1.8,15.9-7.1,30.9-15.2,44c1.2-0.2,2.3-0.4,3.5-0.5
			c10.7-1.3,21.5,2.4,29.2,9.9c4.7,4.7,8.1,10.6,9.8,17c0.8,3.1-4,4.4-4.8,1.3c-0.2-0.9-0.5-1.8-0.8-2.7c-0.5-1.4-1.1-2.7-1.8-4
			c-4.1-8.1-11.7-14-20.6-16.1c-6.2-1.4-12.8-0.9-18.7,1.4c-14,19.4-34.4,34-58.4,40.7c-2.3,0.7-4.7,1.3-6.9,1.9
			C366.6,116.9,366.7,102.5,366.8,88z M191.8,103.3c0.4-9.3,2.3-19.1,6.3-27.6c0.1-0.2,0.1-0.3,0.2-0.5c0.5-1.1,1.1-2.1,1.6-3.1
			c5.5-9.8,13.2-18.2,22.5-24.5c13.8-9,30.5-12.5,46.8-9.8c16.2,2.6,31,10.8,41.8,23.1c10.5,12.4,16.3,28.1,16.2,44.3
			c0,13.3-3.6,26.3-10.5,37.6c-5.5,8.8-12.8,16.4-21.4,22.2c-13.4,8.8-29.6,12.2-45.4,9.5c-16-2.9-30.5-11.1-41.2-23.3
			C197.2,138,191.1,120.9,191.8,103.3z M50.6,38.4h98.7h2h3v2.8v18.6v295.7c0,3.2-5,3.2-5,0V59.8V43.4H50.6v3.1v457.9
			c0,3.2-5,3.2-5,0V58.1V46.6v-4.7v-3.4h2.3H50.6z M298.8,735.3H185.7h-2.3h-2.5v-3.7V731v-3.9c0.3-15.8,2.4-31.4,6.4-46.7
			c3.4-12.6,7.9-24.9,13.6-36.7c5.3-11.2,11.7-21.8,19.2-31.7c19.9-26.4,47.4-46.1,78.8-56.5c1.1-0.4,2,0,2.5,0.7
			c0.4,0.4,0.7,1,0.7,1.7v126.7V727v1.6v2.2v4.5h-2.5H298.8z M331,514.1c-0.2,0.1-0.5,0.3-0.8,0.5c-3.7,2.6-7.6,4.8-11.6,6.6
			c-1.7,0.9-3.5,1.3-5.4,1.3c-0.7,0-4.4-0.2-6.4-2.8c-3.5-4.2,0.5-11.9,1.1-13.1c1.5-3,4.5-5.8,10.5-11.4c2.3-2.1,4.2-3.8,5.5-4.9
			l0,0c13.1-12,28.4-23.4,28.4-23.4c24.2-18.3,36.3-27.5,46.8-34.8c35.2-24.3,60.9-38.6,69.5-43.3c9.5-5.2,17.5-9.2,23.1-12
			c10-5,16.9-8.1,22.3-10.8c27.1-13.5,46.7-23.9,48.1-25.2c1.2-1,2.1-2.4,2.6-3.9c0.3-1.9-0.1-3.8-1.2-5.4c-6.4-9.7-87,27.6-87,27.6
			c-12.7,5.9-23,10.6-38,18.3c0,0-69.7,35.7-119.2,74.7c-7.8,6.1-14.8,12.1-14.8,12.1c-6.7,5.9-12.9,11.9-27.3,25.7
			c-25.5,24.3-48.2,51.3-67.8,80.6c0,0-40.2,59.7-61.8,122.3c-1.1,3.2-2,5.4-3.7,9.7c-12.7,31.9-19.1,34.4-22.2,35
			c-2.2,0.5-4.5,0.2-6.5-0.8c-0.2-0.1-0.5-0.3-0.7-0.5c-11.2-8.5-1-48-1-48c0,0,15.1-61,41.5-116c33-69,79-118.1,87.4-125.8
			c6.7-6.1,12.3-13.2,18.9-19.4c2.4-2.4,4.6-5.1,6.5-8c3.1-4.5,5.8-9.9,4.3-13.5c-0.6-1.1-1.6-1.9-2.7-2.3
			c-6.3-2.8-39.6,9.9-81.7,57.2c-5.2,5.9-22.7,25.9-43.8,60.4C111.3,574.2,99,605.2,87,645.4c-11.8,39.2-17.6,58.8-20.8,73.8
			c-0.8,3.8-3,15.1-10.6,17.9c-1.9,0.8-4,0.9-5.9,0.3c-9.9-3.6-8.7-31.4-8.2-44.9c0.3-10.7,1.5-21.3,3.5-31.8
			c9.6-45.5,14.5-68.2,26.4-100.6c12.9-35,31.1-83.4,70.7-136.7c24.6-33.1,47.4-54.5,64.8-70.7c48.5-45.2,92-71.1,125.1-90.5
			c84.5-49.6,142.9-63.8,148.5-64.5c1-0.1,4-0.9,10-2.3c5-1.2,7.4-1.9,8.4-3.9c0.6-1.6,0.5-3.5-0.3-5c-3.8-7.3-29.6-3.2-33.9-2.5
			c-57.2,9.6-105.1,32.3-108,33.7c-17,8.2-25.7,12.4-37.9,20c-30.9,19.2-109.5,76-125,86.2c-2.2,1.5-7.5,4.8-12,3.1
			c-2.4-1.1-4.2-3.1-5-5.7c-1.6-5.3,2.7-11,5.4-14.8c0.7-0.9,1.2-1.5,1.3-1.6C212.9,269.6,237,248,237,248
			c20.8-18.6,43.2-35.3,67-50c6.4-4,37-22.6,81.1-39.7c21.6-8.4,45.8-17.6,79.2-23.1c18.4-3,35.9-5.8,59-2.8
			c18.9,2.4,32.8,4.2,48.3,13.4c15.5,9.2,21.6,19.4,33.2,17.6c8.8-1.3,16.3-9,19.8-12.6c3.9-4.1,7.2-8.7,9.8-13.8
			c6.2-12.1,6.9-22.9,7.5-28c2.6-22.3,18.6-50.4,42.4-61c15.3-6.8,29.7-4.5,34.3-3.8c4.6,0.8,25.2,4.3,38,22.3
			c11.2,15.7,9.6,33,8.7,43c-2.6,29.1-21.3,63-48,71.1c-9.9,3-13.9,2-29,8.3c-5.1,1.7-23.6,8.6-31.3,23.5c-1.3,2.5-2.3,5.1-3,7.8
			c-1.5,6.1-1.4,12.4,0.1,18.5c1.9,8.6,7.1,41.6,1.6,67.3c-6,27.5-24.3,47.4-31,54c-2.3,2.3-4.3,4-5.5,5.1
			c-10,8.7-23.6,15-50.8,27.4c0,0-11.4,4.2-50.9,21c-2.2,0.9-30.5,13-60.1,29.2c-32.1,17.6-92.5,50.6-119.3,66.9l0,0
			c-2.8,1.7-5,3.1-6.7,4.2C331.2,514,331.1,514.1,331,514.1z"/>
		<path class="st0" d="M548.8,256.8c1.3-1.6,2.6-3.2,3.8-4.9c-0.7-0.3-1.4-0.5-2.1-0.7c-0.1,0-0.2-0.1-0.3-0.1
			c-0.5,2.1-1.1,4.2-1.8,6.4C548.4,257.2,548.6,257,548.8,256.8z"/>
		<path class="st0" d="M517.4,256c-0.6,1.3-1.2,2.5-1.8,3.9c3.5-4.6,7.2-9.1,11.3-13.3l-3.4-0.7C521.2,249.1,519.2,252.5,517.4,256z
			"/>
		<path class="st0" d="M531.1,242.4c0.1,0,0.1-0.1,0.2-0.2c-1.4-0.3-2.8-0.5-4.2-0.8c0,0-0.1,0.1-0.1,0.1L531.1,242.4z"/>
		<path class="st0" d="M541.6,261.9c1.4-3.9,2.6-7.9,3.6-11.9c-3-0.6-5.9-1.1-8.9-1.6l-3.5-0.7c-1.3,1.2-2.5,2.5-3.7,3.8
			c-4.6,4.9-8.8,10.2-12.6,15.7c1.6,0.7,3.3,1.3,5,1.8c2.7,0.9,5.5,1.6,8.4,2.2c2.9-0.4,5.8-0.8,8.6-1.4
			C539.6,267.2,540.6,264.6,541.6,261.9z"/>
		<path class="st0" d="M556.9,254.3c-1.4,2.1-2.9,4.1-4.5,6l0,0c-1,1-2.6,1-3.5,0c-0.6-0.6-0.8-1.4-0.7-2.2
			c-0.3,0.8-0.5,1.6-0.8,2.4c-0.8,2.4-1.7,4.8-2.6,7.2c0.5-0.4,1.1-0.8,1.6-1.3C550.5,263.1,554.1,259,556.9,254.3
			C556.9,254.3,556.9,254.3,556.9,254.3z"/>
		<path class="st0" d="M557.6,262.1c0.5-0.4,1.1-0.9,1.6-1.4c0.1-0.3,0.1-0.6,0.1-1C558.8,260.6,558.3,261.4,557.6,262.1z"/>
		<path class="st0" d="M511,258.3c2-4.7,4.4-9.2,7.2-13.4l-14.7-2.8c-3,0.7-5.9,1.5-8.8,2.4c-0.7,2.6-1.3,5.2-1.7,7.9
			c0,0,0,0.1,0,0.1c4.8,4.4,10.2,8.2,15.9,11.2C509.6,261.9,510.3,260.1,511,258.3z"/>
		<path class="st0" d="M477,259.6c-0.4-0.5-0.9-1-1.3-1.6c-1,1.2-2,2.4-2.9,3.7c0.5,1.4,1.4,2.6,2.5,3.6c0.2-1,0.4-2,0.7-3
			C476.3,261.5,476.6,260.6,477,259.6z"/>
		<path class="st0" d="M502.2,281.7c-3.1-0.8-6.1-2.1-8.6-4.1c-0.8-0.6-1.5-1.3-2.1-2.1c-2.6-0.4-5.1-0.8-7.7-1.2
			c-1.4-0.3-2.8-0.6-4.2-1.1c0.2,3.6,1.3,7.1,3.8,9.9c6,0.6,12,0.7,18,0.3C501.6,282.9,501.9,282.3,502.2,281.7z"/>
		<path class="st0" d="M548.1,235.3c2.7,0.3,5.6,0.8,8.4,1.6c-2.1-2.2-4.6-4.2-7.2-5.8c-2-1.3-4.2-2.4-6.4-3.3
			c-0.1,0.1-0.3,0.2-0.4,0.3c-3,1.9-5.8,4-8.4,6.3C538.8,234.5,543.5,234.8,548.1,235.3z"/>
		<path class="st0" d="M551.6,243c1.6,0.7,3.2,1.5,4.7,2.3c0.4-0.9,0.8-1.8,1.2-2.8c-0.1-0.1-0.3-0.1-0.4-0.2
			c-1.9-0.7-3.9-1.3-5.9-1.7C551.4,241.5,551.5,242.2,551.6,243z"/>
		<path class="st0" d="M515.2,272.2c-0.5-0.2-1-0.4-1.6-0.6c-0.1,0.2-0.3,0.4-0.4,0.6C513.9,272.2,514.6,272.2,515.2,272.2z"/>
		<path class="st0" d="M508.9,287.6c-1.4,0.2-2.8,0.4-4.2,0.5c-0.1,0.3-0.3,0.6-0.4,1c-0.1,0.1-0.2,0.2-0.2,0.3
			c1.9-0.1,3.8-0.3,5.7-0.5C509.4,288.5,509.2,288.1,508.9,287.6z"/>
		<path class="st0" d="M528.2,219.2c3.3-0.9,6.6-1.6,10-2c4.2-0.5,8.9-0.4,13.2,0.7c0.6-0.2,1.1-0.4,1.7-0.7
			c-0.7-0.7-1.5-1.5-2.3-2.1c-5.6-4.6-12.7-6.9-19.9-6.3c-7.9,0.6-15.4,4.4-21.2,9.6c-2,1.9-3.8,3.9-5.4,6
			C511.5,220.3,519.9,218.7,528.2,219.2z"/>
		<path class="st0" d="M518.4,286.4c-0.5,0-1-0.1-1.5-0.2c-0.9,0.2-1.7,0.4-2.6,0.5c0.3,0.4,0.7,0.8,1.1,1.2
			c1.9-0.4,3.7-0.8,5.6-1.4C520,286.5,519.2,286.5,518.4,286.4z"/>
		<path class="st0" d="M563.9,225.3c2.9,3.6,3.9,7.9,3.8,12.3c1.3,3.3,1.8,6.8,1.6,10.3c0.2,0.7,0.4,1.5,0.4,2.2
			c0.3,0.9,0.6,1.7,0.9,2.6c3.6-5.4,6.3-11.4,8-17.7c0.7-2.7,0.9-5.5,0.7-8.2c-0.1-2.2-0.9-4.4-2.3-6.2c-2-2.3-5-2.6-8.2-2.2
			c-2.6,0.3-5.2,0.8-7.7,1.5c0.8,1.4,1.4,2.9,1.9,4.5C563.3,224.6,563.6,224.9,563.9,225.3z"/>
		<path class="st0" d="M569.3,268.4c-0.1-0.9-0.2-1.8-0.3-2.6c-0.7,2.6-2.1,4.9-4.2,6.6c-3.5,2.9-7.8,4.2-12.2,4.9
			c-2.9,1.8-5.9,3.4-9,4.7c-1.8,1.1-3.6,2.1-5.5,3.1c2.3,0.5,4.6,0.9,6.9,1.3c5.8,0.8,12.4,0.8,17.6-2.2
			C568.1,280.9,569.8,274.6,569.3,268.4z"/>
		<path class="st0" d="M499.7,288.5c-2,0.1-4,0.2-6,0.1c2.1,0.5,4.3,0.7,6.5,0.8C500,289.1,499.8,288.8,499.7,288.5z"/>
		<path class="st0" d="M474.6,271.1c-1.3-0.8-2.5-1.7-3.5-2.8c-0.4-0.4-0.8-0.9-1.1-1.4c-0.5,1.3-1,2.7-1.3,4.1
			c-0.7,3.4-0.8,7.3,2.4,9.2c1.7,1,3.7,1.6,5.7,2C475.1,278.9,474.5,275,474.6,271.1z"/>
		<path class="st0" d="M479.9,245.5c-1.5-2-2.9-4.1-4.3-6.3c-0.8,2.9-0.7,5.8,0.2,8.5c0.6-0.4,1.2-0.7,1.9-1.1
			C478.4,246.2,479.1,245.9,479.9,245.5z"/>
		<path class="st0" d="M487.4,242c0.8-0.5,1.6-1,2.4-1.5c0.1-0.3,0.3-0.6,0.4-0.9l-9.6-1.8c1.2,1.9,2.5,3.7,3.8,5.4
			C485.4,242.8,486.4,242.4,487.4,242z"/>
		<path class="st0" d="M517.1,235c0.8-0.1,1.5-0.1,2.3-0.2c2.5-0.2,5-0.3,7.5-0.4c2.6-2.6,5.4-5.1,8.3-7.3c-1.6,0.2-3.1,0.5-4.7,0.9
			c-6.2,1.5-12.3,3.8-18.2,6.4C513.9,234.6,515.5,234.8,517.1,235z"/>
		<path class="st0" d="M487.2,262c-0.2-0.7-0.3-1.3-0.4-2c-0.3-2.2-0.4-4.4-0.3-6.7c-0.2-0.2-0.4-0.4-0.6-0.6
			c-1.2,1.8-2.3,3.8-3.2,5.8c1.4,1.4,2.9,2.6,4.5,3.9C487.2,262.2,487.2,262.1,487.2,262z"/>
		<path class="st0" d="M514.1,277.2c-0.1,0-0.3,0-0.4,0c0.9,0.4,1.8,0.7,2.7,1.1c3.5-0.1,6.9-0.7,10.3-1.6
			C522.5,277.1,518.3,277.2,514.1,277.2z"/>
		<path class="st0" d="M488.4,270c-0.1-0.3-0.2-0.6-0.3-1c-2.5-1.7-5-3.6-7.3-5.6c-0.4,1.5-0.8,3-1,4.6c2.2,0.8,4.7,1.3,6.9,1.7
			C487.3,269.8,487.8,269.9,488.4,270z"/>
		<path class="st0" d="M479.2,254.5C479.2,254.5,479.2,254.5,479.2,254.5c0.1,0,0.1-0.1,0.1-0.1
			C479.3,254.4,479.2,254.4,479.2,254.5z"/>
		<path class="st0" d="M502.3,271.7c1.6,0.1,3.2,0.2,4.8,0.3c0.2-1.1,0.3-2.2,0.6-3.2c-1.4-0.7-2.8-1.5-4.2-2.3
			c-4-2.3-7.7-4.9-11.2-7.8c-0.1,0.9-0.1,1.8-0.1,2.7c0.6,2.1,1.4,4.2,2.5,6.1c2.2,1.3,4.4,2.6,6.6,3.8
			C501.6,271.3,502,271.5,502.3,271.7z"/>
		<path class="st0" d="M557.3,225.9c-1.7-1.2-3.5-2.1-5.5-2.7c-0.1,0-0.2,0.1-0.3,0.1C553.5,223.9,555.4,224.8,557.3,225.9z"/>
		<path class="st0" d="M250,174.5c15.8,2.7,32-0.7,45.4-9.5c8.6-5.8,15.9-13.3,21.4-22.2c6.9-11.3,10.5-24.3,10.5-37.6
			c0.1-16.2-5.7-32-16.2-44.3c-10.8-12.4-25.6-20.5-41.8-23.1c-16.3-2.7-33,0.8-46.8,9.8c-9.3,6.3-17.1,14.7-22.5,24.5
			c-0.6,1-1.1,2.1-1.6,3.1c-0.1,0.2-0.2,0.3-0.2,0.5c-4,8.5-5.9,18.3-6.3,27.6c-0.8,17.5,5.3,34.7,16.9,47.8
			C219.5,163.4,234,171.6,250,174.5z M201.9,79.5c0.1-0.3,0.2-0.6,0.4-0.9c-0.2,0.4-0.1,0.2,0.1-0.2c0.1-0.2,0.2-0.5,0.3-0.7
			c0,0,0,0,0,0c3.6-7.4,8.6-14.2,14.7-19.8C228,48,242,42.3,256.6,41.9c15.5-0.4,30.6,4.7,42.6,14.4c12,9.7,20,23.4,22.4,38.7
			c2.2,14.2-0.2,28.7-6.8,41.4c-1.5,2.8-3.1,5.5-5,8l-0.9,1.2l-0.2,0.2l-0.6,0.8c-0.8,0.9-1.5,1.8-2.3,2.8c-1.8,2-3.7,3.9-5.7,5.7
			c-10.4,9.5-23.8,14.9-37.8,15.4c-15.2,0.3-30.2-5.3-41.9-15c-12.5-10.4-21.3-25-23.2-41.3C195.9,102.4,197.5,90.5,201.9,79.5z"/>
		<line class="st1" x1="615.1" y1="401.4" x2="615.1" y2="401.4"/>
		<path class="st0" d="M478.7,461.1v261.6v11.4v1.2h5v-1.2v-11.4V461.1C483.7,457.9,478.7,457.9,478.7,461.1z"/>
		<path class="st0" d="M347.3,525.9v180.3v24v5.2h2.5h94.7h1.3h3.8v-28.1h0c0-14.2-1-28.4-2.9-42.5c-2-14-5.2-28.3-12.5-40.6
			c-4.3-7.4-10.2-13.8-17.4-18.6c-6.2-4.1-13.1-6.9-20.5-8.1c-16.2-2.5-32.5,3.5-44,15v-86.7C352.3,522.7,347.3,522.7,347.3,525.9z
			 M352.9,619.4c0.2-0.2,0.4-0.5,0.6-0.7c0,0,0.5-0.6,1.1-1.2c5-5.4,10.7-8.9,10.7-8.9s0.3-0.2,0.7-0.4c3.1-1.8,12.3-6.6,23.6-6.3
			c15.8,0.3,30.3,9.3,38.8,22.4c7.4,11.3,10.7,24.3,12.9,37.7c2.2,14.5,3.3,29.2,3.3,43.9c0,0.4,0,0.9,0,1.3h0v11.6
			c0,2.6-0.1,5.1-0.2,7.7v3.6h4.7v2.4h-96.7v-2.4v-24v-87.8c-0.5,0.7-1.7,2.2-1.3,2.8c0.1,0.1,0.2,0.2,0.5,0.2
			C352.1,620.4,352.6,619.8,352.9,619.4z"/>
		<path class="st0" d="M431.7,88.8c6-2.3,12.5-2.8,18.7-1.4c8.9,2,16.4,7.9,20.6,16.1c0.7,1.3,1.3,2.6,1.8,4
			c0.3,0.9,0.6,1.8,0.8,2.7c0.8,3.1,5.6,1.8,4.8-1.3c-1.7-6.4-5.1-12.3-9.8-17c-7.7-7.5-18.5-11.2-29.2-9.9
			c-1.2,0.1-2.3,0.3-3.5,0.5c8.1-13.1,13.4-28,15.2-44c0-1.4-1.1-2.5-2.5-2.5c-1.4,0-2.5,1.1-2.5,2.5c-0.1,0.5-0.1,1.1-0.2,1.6
			l-0.1,0.4c0,0.3-0.1,0.7-0.1,1c-0.2,1.5-0.5,2.9-0.8,4.4c-0.7,3.6-1.6,7.2-2.7,10.7c-8.6,28.4-29.3,51.5-56.5,63.2
			c-4.5,2-9.2,3.6-13.9,4.9V39.3c0-3.2-5-3.2-5,0V88c-0.1,14.5-0.3,28.9-0.4,43.4c2.2-0.5,4.5-1.2,6.9-1.9
			C397.3,122.9,417.7,108.3,431.7,88.8z"/>
		<path class="st0" d="M520,115c1.3,0.4,2.7-0.4,3.1-1.8l0.1,0c1.1-7.7,2.8-15.2,5.1-22.6c0.2,0.1,0.5,0.1,0.8,0.1h75.1
			c0.2,2.6,0.4,5.2,0.5,7.8c0.5,8,0.9,16,0.9,24.1c0,1.4,0,2.8-0.1,4.2c-0.1,3.2,4.9,3.2,5,0c0.2-7.8-0.1-15.5-0.5-23.3
			c-0.2-4.3-0.5-8.6-0.8-12.8h16.7c3.2,0,3.2-5,0-5h-17.2c-0.2-2.1-0.5-4.2-0.8-6.3C606,66.4,602,52.3,591,43.8
			c-5-4-11.1-6.5-17.5-7.2c-7.4-0.6-14.7,2-20.7,6.1c-3,2-5.8,4.3-8.4,6.8c-3.7,4-7,8.4-9.7,13.2c-7.5,13.2-12.7,27.5-15.4,42.4
			c-0.4,2.2-0.8,4.5-1.1,6.7C517.9,113.2,518.7,114.6,520,115z M535.8,71.6c4.2-8.4,8.8-16.1,16.1-21.9c2-1.7,4.2-3.1,6.5-4.5
			c2.9-1.7,6.1-2.8,9.4-3.4c6.5-1.1,13.2,1,18.6,4.7l1.1,0.8l0.5,0.3l0.4,0.3c3.4,2.8,6.2,6.2,8.2,10.2c3.1,5.7,4.7,12.1,5.9,18.5
			c0.5,3.1,0.9,6.1,1.3,9.2h-73.7C531.6,81,533.6,76.3,535.8,71.6z"/>
		<path class="st0" d="M201.6,654.5C201.5,654.7,201.6,654.4,201.6,654.5L201.6,654.5z"/>
		<path class="st0" d="M765.5,300.2c-0.4,4.9-0.8,9.9-1.4,14.8c-0.6,5.4-1.2,10.2-2,15.5c-1.4,10.1-3.7,20-6.8,29.7
			c-0.4,1.1-0.7,2.2-1.2,3.2c-0.2,0.5-0.4,1-0.5,1.4c-0.1,0.2-0.2,0.5-0.3,0.8s-0.1,0.2-0.1,0.3c-0.2,0.4,0.2-0.5-0.1,0.2
			c-0.8,1.8-1.7,3.6-2.6,5.4c-0.5,0.8-0.9,1.6-1.5,2.4c-0.2,0.4-0.5,0.7-0.7,1s-0.2,0.4-0.4,0.5l-0.2,0.2c-1.4,1.8-2.8,3.5-4.4,5.1
			c-4.3,4.4-9.5,7.9-15.7,9.1c-0.5,0.1-1,0.2-1.4,0.2c0.1,0,0.4,0,0,0l-0.8,0.1c-1.2,0.1-2.5,0.1-3.7,0.1c-3.6-0.1-7.1-0.9-10.3-2.4
			c-6.5-3.1-10.6-8.9-13.6-15.3c-2.5-5.5-4.4-11.3-5.7-17.2c-2.8-11.7-3.3-23.7-3.4-35.9c-0.2-15.1,0.2-30.2,0.7-45.3
			c0.1-4.3,0.3-8.6,0.5-12.9c0.1-3.2-4.9-3.2-5,0l0,0.1c-0.7,15.8-1,31.6-1.2,47.4c-0.1,13.6,0,27.4,2.2,40.9
			c0.9,5.5,2.3,10.9,4,16.2c2.3,7,5.3,14,10.2,19.6c9.1,10.4,25.2,12.5,37.2,6c8.5-4.5,15.2-12.8,19.2-21.4c4.1-9,6.5-18.8,8.5-28.5
			c0.5-2.4,0.9-4.8,1.3-7.2l-0.1,77.1c-0.1,68.4-0.1,136.8-0.2,205.2c0,29.1,0,58.3-0.1,87.4h0v26.1h-81.4
			c-3.5-13.8-6.1-27.8-7.8-41.9c-9.1-76.5,9.2-153.8,51.7-218.1c0.7-1.1,1.5-2.2,2.2-3.3c1.8-2.7-2.5-5.2-4.3-2.5l0,0
			c-7.7,11.3-14.6,23.1-20.8,35.2C672.5,565,662,639.4,675.5,711.1c1.4,6.7,3,13.7,4.8,20.9c0.3,1.1,0.6,2.2,0.9,3.3h1.1
			c0.2,0,0.3,0,0.5,0h83.5h2.3h2.6v-2.1c0.1-0.2,0.1-0.4,0.1-0.7l0.2-206.3l0.2-205.2l0-37.2c0-0.2,0-0.4,0-0.6
			c0.2-3.8,0.3-7.6,0.4-11.5c0.2-15,0.2-30-0.1-44.9c-0.1-4.5-0.2-9-0.3-13.5c0,0,0,0,0,0l0-8c0-3.2-5-3.2-5,0h0l-0.1,78.6
			C766.3,289.3,766,294.7,765.5,300.2z"/>
		<path class="st0" d="M726.4,390C726.4,390,726.4,390,726.4,390C726.4,390,726.4,390,726.4,390z"/>
		<path class="st0" d="M298.8,728.6h3.2V727h-2.1v-42.4h2.1V557.9c0-0.7-0.3-1.3-0.7-1.7c-0.5-0.7-1.4-1.1-2.5-0.7
			c-31.4,10.4-58.9,30.1-78.8,56.5c-7.5,9.9-13.9,20.5-19.2,31.7c-5.6,11.8-10.2,24-13.6,36.7c-4,15.3-6.1,30.9-6.4,46.7v3.9h4.8
			v4.4h113.1V728.6z M190.6,688.1c2-9,4.7-17.9,8.1-26.5c0.9-2.3,1.8-4.6,2.8-6.9c0.1-0.2,0.1-0.3,0.1-0.3c0,0,0,0,0,0l0.3-0.6
			l0.6-1.4c0.4-1,0.9-2,1.3-3c4.7-10.6,10.5-20.6,17.1-30.1c9-12.7,19.8-24.1,32.1-33.7c13-10.1,27.5-18.1,43-23.8
			c0.3-0.1,0.7-0.2,1-0.4v168.9H185.9C185.9,716.1,187.5,702,190.6,688.1z"/>
		<path d="M574,266.2c-0.4-2.5-0.9-5-1.6-7.5c1.6-2.2,3.1-4.4,4.4-6.8c3.5-6.2,6.6-13.1,7.3-20.2c0.7-6-0.6-13.2-6.1-16.7
			c-3.7-2.3-8.1-1.9-12.2-1.3c-2.6,0.4-5.2,1-7.8,1.7c-1.1-1.4-2.4-2.7-3.9-3.9c-6.5-5.5-14.9-8.3-23.4-7.8
			c-9,0.8-17.5,4.5-24.2,10.5c-5.6,4.9-9.8,11.1-12.9,17.8c-0.8-0.1-1.6-0.2-2.5-0.3l-7.1-0.9c-2.2-0.4-4.4-0.5-6.7-0.3
			c-4.3,0.7-6.5,5-7.2,8.9c-0.7,3.9-0.2,7.7,1.2,11.2c-1.6,1.4-2.9,3.1-3.6,5.1c-0.6,1.7-0.8,3.4-0.5,5.1c-1.9,3.2-3.2,6.8-3.8,10.5
			c-0.5,2.5-0.4,5,0.3,7.4c0.8,2.2,2.2,4,4.1,5.3c3.5,2.5,8.1,3,12.3,3.5c0.2,0,0.5,0,0.7,0.1c5.9,5.2,14.3,6.8,22,6.6
			c3.7-0.1,7.4-0.5,11.1-1.2c0.6,0.3,1.2,0.6,1.9,0.9c6.4,2.4,12.6-0.6,17.1-5.1c4.8,1.2,9.7,2.2,14.6,2.6c7,0.5,14.4-0.5,19.9-5.1
			C573.7,281.5,575,273.5,574,266.2z M483.4,283.1c-2.5-2.8-3.6-6.2-3.8-9.9c1.4,0.4,2.8,0.8,4.2,1.1c2.6,0.5,5.1,0.9,7.7,1.2
			c0.6,0.7,1.3,1.4,2.1,2.1c2.5,2,5.5,3.3,8.6,4.1c-0.3,0.6-0.6,1.1-0.8,1.7C495.4,283.8,489.4,283.7,483.4,283.1z M472.8,261.8
			c0.9-1.3,1.8-2.5,2.9-3.7c0.4,0.5,0.8,1.1,1.3,1.6c-0.3,0.9-0.7,1.8-1,2.8c-0.3,1-0.5,2-0.7,3
			C474.2,264.4,473.3,263.1,472.8,261.8z M542.9,227.8c2.2,0.9,4.3,2,6.4,3.3c2.6,1.6,5.1,3.6,7.2,5.8c-2.8-0.8-5.7-1.3-8.4-1.6
			c-4.7-0.5-9.4-0.8-14.1-0.9c2.6-2.3,5.4-4.4,8.4-6.3C542.6,228,542.8,227.9,542.9,227.8z M557.5,242.6c-0.4,0.9-0.8,1.9-1.2,2.8
			c-1.5-0.9-3.1-1.6-4.7-2.3c0-0.8-0.1-1.6-0.4-2.3c2,0.4,4,0.9,5.9,1.7C557.2,242.4,557.3,242.5,557.5,242.6z M557.6,262.1
			c0.6-0.8,1.2-1.5,1.7-2.3c0,0.3-0.1,0.6-0.1,1C558.7,261.2,558.2,261.7,557.6,262.1z M521.5,269.1c-1.7-0.5-3.4-1.2-5-1.8
			c3.8-5.5,8-10.8,12.6-15.7c1.2-1.3,2.4-2.5,3.7-3.8l3.5,0.7c2.9,0.6,5.9,1,8.9,1.6c-1,4-2.2,8-3.6,11.9c-0.9,2.7-2,5.3-3.1,7.9
			c-2.9,0.6-5.7,1.1-8.6,1.4C527.1,270.7,524.3,270,521.5,269.1z M515.6,259.9c0.5-1.3,1.1-2.6,1.8-3.9c1.8-3.5,3.8-6.9,6.1-10.1
			l3.4,0.7C522.9,250.8,519.1,255.2,515.6,259.9z M550.4,251.2c0.7,0.2,1.4,0.4,2.1,0.7c-1.2,1.7-2.5,3.4-3.8,4.9
			c-0.2,0.2-0.3,0.4-0.5,0.7c0.7-2.1,1.2-4.2,1.8-6.4C550.2,251.1,550.3,251.2,550.4,251.2z M546.3,266.5c-0.5,0.4-1.1,0.8-1.6,1.3
			c0.9-2.4,1.8-4.8,2.6-7.2c0.3-0.8,0.5-1.6,0.8-2.4c-0.1,0.8,0.1,1.6,0.7,2.2c1,1,2.6,1,3.5,0l0,0c1.6-1.9,3.1-3.9,4.5-6
			c0,0,0,0,0,0C554.1,259,550.5,263.1,546.3,266.5z M531.3,242.2c-0.1,0-0.1,0.1-0.2,0.2l-4.2-0.8c0,0,0.1-0.1,0.1-0.1
			C528.5,241.7,529.9,241.9,531.3,242.2z M493.1,252.4c0.4-2.7,1-5.3,1.7-7.9c2.9-0.9,5.8-1.7,8.8-2.4l14.7,2.8
			c-2.8,4.2-5.3,8.6-7.2,13.4c-0.7,1.8-1.4,3.6-2,5.5C503.3,260.7,497.9,256.9,493.1,252.4C493.1,252.5,493.1,252.5,493.1,252.4z
			 M513.7,271.6c0.5,0.2,1,0.4,1.6,0.6c-0.6,0-1.3,0-1.9,0C513.4,272,513.5,271.8,513.7,271.6z M492.2,261.3c0-0.9,0-1.8,0.1-2.7
			c3.5,2.9,7.2,5.5,11.2,7.8c1.4,0.8,2.8,1.6,4.2,2.3c-0.2,1.1-0.4,2.1-0.6,3.2c-1.6-0.1-3.2-0.2-4.8-0.3c-0.3-0.2-0.7-0.3-1-0.5
			c-2.2-1.2-4.4-2.5-6.6-3.8C493.6,265.5,492.8,263.4,492.2,261.3z M513.7,277.2c0.1,0,0.3,0,0.4,0c4.2,0.1,8.4-0.1,12.6-0.5
			c-3.4,0.9-6.8,1.5-10.3,1.6C515.5,277.9,514.6,277.6,513.7,277.2z M530.5,228.1c1.5-0.4,3.1-0.7,4.7-0.9c-3,2.2-5.7,4.7-8.3,7.3
			c-2.5,0.1-5,0.2-7.5,0.4c-0.8,0.1-1.5,0.1-2.3,0.2c-1.6-0.2-3.2-0.4-4.8-0.6C518.2,231.8,524.3,229.6,530.5,228.1z M486,252.6
			c0.2,0.2,0.4,0.4,0.6,0.6c-0.1,2.2-0.1,4.4,0.3,6.7c0.1,0.7,0.2,1.4,0.4,2c0,0.1,0,0.2,0,0.4c-1.6-1.2-3.1-2.5-4.5-3.9
			C483.6,256.4,484.7,254.5,486,252.6z M479.2,254.5c0,0,0.1-0.1,0.1-0.1C479.3,254.4,479.3,254.5,479.2,254.5
			C479.2,254.5,479.2,254.5,479.2,254.5z M480.8,263.5c2.3,2,4.7,3.8,7.3,5.6c0.1,0.3,0.2,0.6,0.3,1c-0.6-0.1-1.1-0.2-1.7-0.3
			c-2.3-0.4-4.7-0.8-6.9-1.7C480,266.5,480.4,265,480.8,263.5z M557.3,225.9c-1.9-1.1-3.8-1.9-5.8-2.6c0.1,0,0.2-0.1,0.3-0.1
			C553.7,223.8,555.6,224.7,557.3,225.9z M490.2,239.6c-0.1,0.3-0.3,0.6-0.4,0.9c-0.8,0.5-1.6,1-2.4,1.5c-1,0.4-2,0.8-2.9,1.2
			c-1.4-1.8-2.6-3.6-3.8-5.4L490.2,239.6z M504.3,289.1c0.1-0.3,0.3-0.6,0.4-1c1.4-0.1,2.8-0.3,4.2-0.5c0.2,0.4,0.5,0.9,0.7,1.3
			c-1.9,0.2-3.8,0.4-5.7,0.5C504.1,289.3,504.2,289.2,504.3,289.1z M514.2,286.8c0.9-0.2,1.8-0.3,2.6-0.5c0.5,0.1,1,0.1,1.5,0.2
			c0.8,0.1,1.7,0.1,2.5,0.1c-1.8,0.5-3.7,1-5.6,1.4C514.9,287.6,514.5,287.2,514.2,286.8z M568.9,218.3c3.2-0.4,6.1-0.1,8.2,2.2
			c1.3,1.8,2.1,4,2.3,6.2c0.2,2.8,0,5.5-0.7,8.2c-1.7,6.3-4.4,12.3-8,17.7c-0.3-0.9-0.6-1.7-0.9-2.6c-0.1-0.8-0.2-1.5-0.4-2.2
			c0.2-3.5-0.3-7-1.6-10.3c0.1-4.4-0.8-8.7-3.8-12.3c-0.3-0.3-0.5-0.6-0.8-0.9c-0.5-1.5-1.1-3-1.9-4.5
			C563.7,219.2,566.2,218.7,568.9,218.3z M509.7,218.4c5.8-5.2,13.4-9,21.2-9.6c7.2-0.5,14.3,1.7,19.9,6.3c0.8,0.7,1.6,1.4,2.3,2.1
			c-0.6,0.2-1.1,0.4-1.7,0.7c-4.4-1-9-1.2-13.2-0.7c-3.4,0.4-6.7,1.1-10,2c-8.3-0.5-16.6,1-23.9,5.2
			C505.9,222.3,507.7,220.3,509.7,218.4z M475.6,239.2c1.3,2.2,2.7,4.2,4.3,6.3c-0.7,0.4-1.5,0.8-2.2,1.2c-0.6,0.3-1.2,0.7-1.9,1.1
			C475,245,474.8,242.1,475.6,239.2z M468.7,271.1c0.3-1.4,0.7-2.8,1.3-4.1c0.4,0.5,0.7,0.9,1.1,1.4c1,1.1,2.2,2,3.5,2.8
			c-0.1,3.9,0.5,7.8,2.2,11.2c-2-0.4-4-1-5.7-2C468,278.4,468,274.4,468.7,271.1z M499.7,288.5c0.1,0.3,0.3,0.7,0.5,0.9
			c-2.1-0.1-4.3-0.3-6.5-0.8C495.7,288.6,497.7,288.6,499.7,288.5z M562.5,284.2c-5.2,3-11.8,3-17.6,2.2c-2.3-0.4-4.6-0.8-6.9-1.3
			c1.9-1,3.7-2,5.5-3.1c3.1-1.3,6.1-2.9,9-4.7c4.4-0.6,8.7-2,12.2-4.9c2.1-1.7,3.5-4.1,4.2-6.6c0.1,0.9,0.3,1.8,0.3,2.6
			C569.8,274.6,568.1,280.9,562.5,284.2z"/>
		<path class="st0" d="M529,735.3h2.5h83.6h2.5h2.5v-3.9V714V401.4c0-3.2-5-3.2-5,0V714v16.4h-40.3V419.6c0-3.2-5-3.2-5,0v310.7
			h-38.4v-0.2v-20.3V438.5c0-3.2-5-3.2-5,0v291.7c0,0,0,0.1,0,0.1v5.1H529z"/>
		<path class="st0" d="M45.6,41.8v4.7v11.6v446.4c0,3.2,5,3.2,5,0V46.6v-3.1h98.7v16.3v295.7c0,3.2,5,3.2,5,0V59.8V41.2v-2.8h-3h-2
			H50.6h-2.7h-2.3V41.8z"/>
		<path class="st0" d="M338,509.8c26.8-16.2,87.2-49.3,119.3-66.9c29.6-16.2,57.9-28.3,60.1-29.2c39.5-16.8,50.9-21,50.9-21
			c27.2-12.5,40.9-18.7,50.8-27.4c1.2-1.1,3.1-2.8,5.5-5.1c6.7-6.6,25-26.5,31-54c5.5-25.7,0.3-58.7-1.6-67.3
			c-1.5-6.1-1.6-12.4-0.1-18.5c0.7-2.7,1.7-5.3,3-7.8c7.7-14.9,26.2-21.8,31.3-23.5c15.1-6.3,19.1-5.3,29-8.3
			c26.7-8.1,45.4-42,48-71.1c0.9-10,2.5-27.3-8.7-43c-12.8-18-33.4-21.5-38-22.3c-4.6-0.8-19-3-34.3,3.8
			c-23.9,10.6-39.8,38.7-42.4,61c-0.6,5.1-1.2,15.9-7.5,28c-2.6,5.1-5.9,9.7-9.8,13.8c-3.5,3.5-11,11.2-19.8,12.6
			c-11.6,1.8-17.7-8.4-33.2-17.6c-15.5-9.2-29.4-11-48.3-13.4c-23.1-3-40.6-0.2-59,2.8c-33.5,5.5-57.6,14.8-79.2,23.1
			C341,175.5,310.4,194.1,304,198c-23.8,14.7-46.2,31.4-67,50c0,0-24.1,21.5-53.7,56.8c-0.1,0.1-0.6,0.7-1.3,1.6
			c-2.8,3.8-7,9.5-5.4,14.8c0.8,2.5,2.6,4.6,5,5.7c4.5,1.8,9.8-1.6,12-3.1c15.5-10.3,94.1-67,125-86.2c12.2-7.6,20.9-11.8,37.9-20
			c2.9-1.4,50.8-24.2,108-33.7c4.3-0.7,30.2-4.8,33.9,2.5c0.8,1.5,0.9,3.4,0.3,5c-1,2-3.4,2.7-8.4,3.9c-6,1.5-9,2.2-10,2.3
			c-5.6,0.7-64,14.9-148.5,64.5c-33.1,19.4-76.5,45.3-125.1,90.5c-17.4,16.2-40.2,37.6-64.8,70.7c-39.6,53.3-57.8,101.7-70.7,136.7
			C59.5,592.5,54.6,615.2,45,660.7c-2,10.5-3.1,21.1-3.5,31.8c-0.5,13.5-1.7,41.4,8.2,44.9c2,0.6,4.1,0.5,5.9-0.3
			c7.6-2.8,9.9-14.1,10.6-17.9c3.1-15.1,9-34.7,20.8-73.8c12-40.1,24.2-71.2,56.8-124.5c21.1-34.6,38.6-54.6,43.8-60.4
			c42.1-47.3,75.4-60,81.7-57.2c1.1,0.4,2.1,1.3,2.7,2.3c1.5,3.7-1.2,9.1-4.3,13.5c-1.9,2.9-4.1,5.6-6.5,8
			c-6.6,6.2-12.2,13.3-18.9,19.4c-8.4,7.7-54.3,56.9-87.4,125.8c-26.4,55-41.5,116-41.5,116c0,0-10.2,39.5,1,48
			c0.2,0.2,0.4,0.3,0.7,0.5c2,1,4.3,1.3,6.5,0.8c3.2-0.6,9.5-3.1,22.2-35c1.7-4.3,2.6-6.5,3.7-9.7c21.7-62.6,61.8-122.3,61.8-122.3
			c19.6-29.3,42.3-56.3,67.8-80.6c14.4-13.8,20.6-19.8,27.3-25.7c0,0,7-6.1,14.8-12.1c49.5-39,119.2-74.7,119.2-74.7
			c15-7.7,25.3-12.5,38-18.3c0,0,80.6-37.3,87-27.6c1.1,1.6,1.5,3.5,1.2,5.4c-0.5,1.5-1.4,2.8-2.6,3.9c-1.5,1.3-21,11.6-48.1,25.2
			c-5.4,2.7-12.2,5.8-22.3,10.8c-5.6,2.8-13.6,6.9-23.1,12c-8.6,4.7-34.4,19-69.5,43.3c-10.6,7.3-22.7,16.5-46.8,34.8
			c0,0-15.3,11.4-28.4,23.4l0,0c-1.3,1.1-3.2,2.8-5.5,4.9c-6,5.6-9,8.4-10.5,11.4c-0.6,1.1-4.5,8.9-1.1,13.1
			c2.1,2.5,5.8,2.7,6.4,2.8c1.9,0,3.7-0.5,5.4-1.3c4.1-1.8,8-4,11.6-6.6c0.3-0.2,0.5-0.3,0.8-0.5c0.1-0.1,0.2-0.1,0.3-0.2
			C333,512.8,335.3,511.4,338,509.8L338,509.8z M547.8,291.6c-4.9-0.4-9.8-1.3-14.6-2.6c-4.5,4.5-10.8,7.6-17.1,5.1
			c-0.7-0.3-1.3-0.6-1.9-0.9c-3.7,0.6-7.4,1-11.1,1.2c-7.7,0.2-16.1-1.4-22-6.6c-0.2,0-0.5,0-0.7-0.1c-4.2-0.5-8.8-1.1-12.3-3.5
			c-1.9-1.3-3.3-3.1-4.1-5.3c-0.7-2.4-0.8-4.9-0.3-7.4c0.5-3.8,1.9-7.3,3.8-10.5c-0.3-1.7-0.1-3.4,0.5-5.1c0.8-2.1,2.1-3.7,3.6-5.1
			c-1.3-3.5-1.8-7.3-1.2-11.2c0.7-3.9,2.9-8.2,7.2-8.9c2.2-0.2,4.5-0.1,6.7,0.3l7.1,0.9c0.8,0.1,1.6,0.2,2.5,0.3
			c3.1-6.7,7.3-12.9,12.9-17.8c6.7-6,15.2-9.7,24.2-10.5c8.5-0.5,16.9,2.3,23.4,7.8c1.4,1.2,2.7,2.5,3.9,3.9
			c2.5-0.7,5.1-1.3,7.8-1.7c4.1-0.6,8.5-1.1,12.2,1.3c5.5,3.5,6.7,10.7,6.1,16.7c-0.8,7.1-3.8,14.1-7.3,20.2
			c-1.3,2.3-2.8,4.6-4.4,6.8c0.7,2.5,1.2,5,1.6,7.5c1,7.3-0.3,15.3-6.3,20.3C562.2,291.1,554.7,292.1,547.8,291.6z"/>
		<rect x="299.9" y="684.6" class="st0" width="2.1" height="42.4"/>
		<polygon class="st0" points="302,730.8 302,728.6 298.8,728.6 298.8,735.3 299.5,735.3 302,735.3 		"/>
		<polygon class="st0" points="185.7,731 180.9,731 180.9,731.7 180.9,735.3 183.4,735.3 185.7,735.3 		"/>
		<polygon class="st0" points="352.3,730.2 352.3,732.6 449,732.6 449,730.2 444.3,730.2 		"/>
	</g>
	<path class="st0" d="M358.9,613.2"/>
	<path class="st0" d="M351.9,621.6"/>
</g>
</svg>
